<?xml version="1.0" standalone="no"?><!DOCTYPE svg PUBLIC "-//W3C//DTD SVG 1.1//EN" "http://www.w3.org/Graphics/SVG/1.1/DTD/svg11.dtd"><svg t="1519902397521" class="icon" style="" viewBox="0 0 1024 1024" version="1.1" xmlns="http://www.w3.org/2000/svg" p-id="2037" xmlns:xlink="http://www.w3.org/1999/xlink" width="200" height="200"><defs><style type="text/css"></style></defs><path d="M507.589059 387.637198c-4.464911 4.775619-6.424993 10.281603-6.060819 16.404967 0.431763 5.994239 2.510882 13.339249 6.613637 21.786869l41.253518-34.152635c-9.122501-7.220929-17.320949-10.890913-24.300777-11.259121C518.240888 380.048059 512.304151 382.496396 507.589059 387.637198z" p-id="2038" fill="#1296db"></path><path d="M504.409349 16.476591c-277.999724 0-503.395009 225.395285-503.395009 503.395009 0 277.995689 225.396293 503.390974 503.395009 503.390974 277.99468 0 503.395009-225.396293 503.395009-503.390974C1007.804358 241.871876 782.405038 16.476591 504.409349 16.476591zM734.783019 565.95622 274.032652 565.95622c-25.437685 0-46.08462-20.646935-46.08462-46.08462 0-25.441721 20.646935-46.089664 46.08462-46.089664l460.750367 0c25.442729 0 46.089664 20.646935 46.089664 46.089664C780.872683 545.309285 760.22474 565.95622 734.783019 565.95622z" p-id="2039" fill="#1296db"></path></svg>